PathFileType	4	(X/Y/Z)	/Users/itak/Documents/Research/Walk-IL/dataset/trc/00290_00010.trc
DataRate	CameraRate	NumFrames	NumMarkers	Units	OrigDataRate	OrigDataStartFrame	OrigNumFrames
100.000000	100.000000	4	53	mm	100.000000	505	674
Frame#	Time	RPSI			LPSI			L3			STRN			T10			C7			CLAV			RBAK			LBAK			LSHO			LUPA			LAEL			LAOL			LWTS			LWPS			LFRA			LHPS			RSHO			RUPA			RAEL			RAOL			RWTS			RWPS			RFRA			RIFD			RHTS			RHPS			RBHD			LFHD			RFHD			LBHD			LHIP			RHIP			RASI			LASI			LKNE			LTHI			LANK			LTIP			LTOE			LMT1			LMT5			LHEE			RKNE			RTHI			RANK			RTIP			RTOE			RMT1			RMT5			RHEE			LIFD			LHTS			
		X1	Y1	Z1	X2	Y2	Z2	X3	Y3	Z3	X4	Y4	Z4	X5	Y5	Z5	X6	Y6	Z6	X7	Y7	Z7	X8	Y8	Z8	X9	Y9	Z9	X10	Y10	Z10	X11	Y11	Z11	X12	Y12	Z12	X13	Y13	Z13	X14	Y14	Z14	X15	Y15	Z15	X16	Y16	Z16	X17	Y17	Z17	X18	Y18	Z18	X19	Y19	Z19	X20	Y20	Z20	X21	Y21	Z21	X22	Y22	Z22	X23	Y23	Z23	X24	Y24	Z24	X25	Y25	Z25	X26	Y26	Z26	X27	Y27	Z27	X28	Y28	Z28	X29	Y29	Z29	X30	Y30	Z30	X31	Y31	Z31	X32	Y32	Z32	X33	Y33	Z33	X34	Y34	Z34	X35	Y35	Z35	X36	Y36	Z36	X37	Y37	Z37	X38	Y38	Z38	X39	Y39	Z39	X40	Y40	Z40	X41	Y41	Z41	X42	Y42	Z42	X43	Y43	Z43	X44	Y44	Z44	X45	Y45	Z45	X46	Y46	Z46	X47	Y47	Z47	X48	Y48	Z48	X49	Y49	Z49	X50	Y50	Z50	X51	Y51	Z51	X52	Y52	Z52	X53	Y53	Z53	

506	5.05	567.384521484375	986.0882568359375	147.7124786376953	726.2982177734375	977.413818359375	220.3339385986328	639.2582397460938	1049.656127929688	195.1471405029297	548.3099365234375	1237.937866210938	420.2416076660156	640.3394775390625	1167.036865234375	170.7588348388672	633.5128173828125	1413.851196289062	212.7804107666016	573.6447143554688	1334.105834960938	356.6182861328125	584.5416259765625	1274.52099609375	135.6297760009766	735.1876220703125	1378.674682617188	236.3837127685547	753.7140502929688	1388.790649414062	339.3931884765625	838.3986206054688	1277.019287109375	327.2212829589844	859.49365234375	1074.573486328125	304.2853393554688	812.16357421875	1069.556640625	232.9048156738281	814.2470092773438	836.9591674804688	324.0433654785156	882.2296752929688	835.4684448242188	305.4866333007812	873.4518432617188	971.0308837890625	303.1805114746094	884.270751953125	749.80126953125	280.0533447265625	463.1415405273438	1386.42724609375	213.2437438964844	405.4769592285156	1324.182373046875	186.0261535644531	348.2872314453125	1058.687866210938	181.7646789550781	441.780029296875	1044.9326171875	172.6503753662109	385.0425109863281	911.2603149414062	378.4130554199219	317.1910095214844	881.2688598632812	333.4917297363281	330.0986022949219	1005.229614257812	227.0094604492188	381.9710998535156	750.6508178710938	475.580810546875	363.6679992675781	822.6202392578125	458.0442810058594	319.424560546875	794.3880615234375	408.6457824707031	562.7329711914062	1579.239868164062	218.3815765380859	577.5390014648438	1598.650268554688	430.9739990234375	496.7989807128906	1594.909423828125	381.0796813964844	687.7344360351562	1574.7373046875	295.4574584960938	786.324462890625	936.1204833984375	327.4978332519531	431.2459716796875	934.05859375	199.6017761230469	448.9033813476562	942.2487182617188	337.1342163085938	684.2964477539062	949.9160766601562	429.4924011230469	711.5121459960938	507.4351196289062	530.7386474609375	744.29248046875	638.2294921875	480.0184936523438	841.7821044921875	98.37481689453125	376.1553344726562	785.5715942382812	298.8861389160156	462.9253845214844	717.1096801757812	40.65182495117188	536.3760375976562	706.3460083007812	36.06465530395508	455.6743774414062	810.2793579101562	63.43201065063477	488.6071472167969	805.4346313476562	99.00736236572266	311.0126037597656	511.1754455566406	463.788818359375	293.6304931640625	434.3273315429688	719.8623657226562	276.8985900878906	610.47021484375	39.75883865356445	209.4348754882812	544.431884765625	340.5025634765625	306.3411560058594	659.671630859375	36.67697143554688	406.5289306640625	699.678466796875	32.9188346862793	347.8939819335938	586.8612670898438	31.45815849304199	313.975341796875	659.5332641601562	34.61302947998047	159.4833831787109	827.6593627929688	661.4652099609375	267.0228271484375	832.1658935546875	735.874755859375	316.5938110351562	
507	5.06	569.6137084960938	986.075439453125	154.7197723388672	727.2069091796875	977.6688232421875	230.1994934082031	639.95263671875	1050.69482421875	202.8642272949219	545.9560546875	1238.18896484375	426.5347290039062	640.4769287109375	1167.3203125	178.3894805908203	633.46240234375	1414.010131835938	220.2535095214844	572.2866821289062	1334.263671875	363.3590393066406	584.9061279296875	1274.919067382812	142.6128387451172	734.8089599609375	1378.602416992188	244.6090240478516	752.5460815429688	1388.702392578125	347.7207946777344	837.6837158203125	1277.411254882812	335.2914733886719	859.3863525390625	1075.05517578125	310.5232849121094	812.8790893554688	1071.001831054688	238.5082397460938	814.1614990234375	837.7250366210938	328.6282348632812	882.1911010742188	836.14794921875	310.4302673339844	873.4429931640625	971.7095947265625	308.6768188476562	884.5538940429688	750.5186157226562	285.0853576660156	463.06005859375	1387.06396484375	219.2331085205078	405.2966003417969	1324.9443359375	191.7436370849609	347.2063903808594	1059.520751953125	188.9905548095703	440.7014465332031	1045.325561523438	180.0669555664062	383.1082153320312	916.2193603515625	388.7524108886719	315.4796447753906	885.2060546875	344.1665954589844	328.7867736816406	1006.901550292969	234.9776458740234	379.7838745117188	757.6320190429688	489.3248291015625	361.4720458984375	829.2210693359375	470.1808776855469	317.8090515136719	799.7943725585938	421.36474609375	563.0158081054688	1579.515991210938	225.8767852783203	576.2337646484375	1598.433715820312	438.6318969726562	495.8013916015625	1595.00732421875	388.0776672363281	687.3973388671875	1574.508911132812	303.9005737304688	785.3511352539062	936.961669921875	338.2550659179688	432.5097045898438	933.8469848632812	204.2211456298828	447.3791198730469	942.275390625	342.1528015136719	681.2823486328125	950.8555297851562	438.4285278320312	706.0238647460938	508.9679260253906	541.7186279296875	740.1123046875	639.371826171875	491.0302734375	832.943359375	90.61270904541016	410.5798034667969	778.3578491210938	296.4827880859375	485.2984008789062	700.9634399414062	43.85612106323242	568.2683715820312	693.1695556640625	35.49542617797852	487.5614929199219	796.3544311523438	61.97168731689453	523.2479858398438	799.157470703125	88.94609069824219	344.1568603515625	511.3450927734375	463.5941772460938	296.6731262207031	434.9747009277344	719.5596923828125	281.0629577636719	610.6282348632812	40.08669662475586	209.5212249755859	544.8499145507812	340.1273498535156	308.9926452636719	659.723876953125	36.55300140380859	406.6734008789062	699.8912963867188	32.73603439331055	347.9823913574219	587.063720703125	31.63586807250977	314.0352783203125	659.72509765625	34.98086929321289	159.5655517578125	828.2622680664062	662.0969848632812	271.6674499511719	832.1347045898438	736.59130859375	321.1470031738281	
508	5.07	571.660400390625	985.9544067382812	161.8360443115234	727.9732055664062	977.81396484375	239.9923095703125	640.5118408203125	1051.594482421875	210.6239471435547	543.5529174804688	1238.240844726562	432.6931762695312	640.5162353515625	1167.451904296875	186.0482788085938	633.3555908203125	1414.030639648438	227.7319030761719	570.9237670898438	1334.30224609375	370.1246948242188	585.2359008789062	1275.1416015625	149.6285400390625	734.3787231445312	1378.4140625	252.8439025878906	751.3275756835938	1388.496948242188	356.0416564941406	836.90087890625	1277.6787109375	343.3871154785156	859.1897583007812	1075.48193359375	317.035888671875	813.4869384765625	1072.26025390625	244.3279571533203	813.9757080078125	838.3640747070312	333.4669189453125	882.0849609375	836.7388305664062	315.7955932617188	873.3697509765625	972.2752685546875	314.45947265625	884.8655395507812	751.1290893554688	290.6713562011719	462.9518432617188	1387.562133789062	225.2359466552734	405.0789184570312	1325.604614257812	197.4385833740234	346.1107482910156	1060.268310546875	196.0694274902344	439.5756530761719	1045.630004882812	187.3257751464844	381.1868896484375	920.9317626953125	398.6907348632812	313.7407836914062	889.0006103515625	354.5400390625	327.4851379394531	1008.470703125	242.8127136230469	377.6052551269531	764.4440307617188	502.5831604003906	359.28955078125	835.6293334960938	481.8818664550781	316.084716796875	805.0939331054688	433.6658020019531	563.27783203125	1579.646118164062	233.3554840087891	574.9342041015625	1598.117553710938	446.2417907714844	494.8381042480469	1595.01904296875	395.0729370117188	687.04150390625	1574.118041992188	312.2909545898438	784.3759155273438	937.5979614257812	348.8563842773438	433.7050476074219	933.6139526367188	209.0623474121094	445.9759216308594	942.2159423828125	347.2508239746094	678.384521484375	951.5945434570312	447.2275390625	700.7432250976562	510.1416931152344	552.200439453125	736.0924072265625	640.1657104492188	501.5051574707031	822.6015625	83.47508239746094	444.867431640625	770.4285888671875	294.180419921875	507.4782409667969	683.1111450195312	47.52116775512695	598.6364135742188	678.441162109375	35.63346481323242	518.1902465820312	780.6805419921875	60.93983840942383	557.0287475585938	791.5740356445312	79.7108154296875	377.2965393066406	511.3921813964844	463.3696899414062	299.7982788085938	435.5014038085938	719.2240600585938	285.3299255371094	610.8038330078125	40.39545059204102	209.6327362060547	545.2074584960938	339.6936950683594	311.5999755859375	659.7694702148438	36.45429992675781	406.7980041503906	700.0851440429688	32.57755661010742	348.0468444824219	587.2439575195312	31.80892372131348	314.0874633789062	659.9318237304688	35.36150741577148	159.6366577148438	828.93603515625	662.5580444335938	276.9065246582031	832.0965576171875	737.22412109375	326.1949157714844	
509	5.08	573.49169921875	985.7186279296875	169.0768585205078	728.5878295898438	977.813232421875	249.6953582763672	640.927734375	1052.266723632812	218.4211730957031	541.1090698242188	1238.094360351562	438.7431640625	640.4676513671875	1167.4140625	193.7364196777344	633.1883544921875	1413.899047851562	235.2177429199219	569.555908203125	1334.210571289062	376.9210815429688	585.5302124023438	1275.176147460938	156.6831970214844	733.9007568359375	1378.101196289062	261.0912475585938	750.0689697265625	1388.164916992188	364.3624267578125	836.0478515625	1277.802001953125	351.5136413574219	858.9129028320312	1075.857299804688	323.7898864746094	813.9644165039062	1073.297241210938	250.3647003173828	813.7265014648438	838.8527221679688	338.6054077148438	881.9295043945312	837.2097778320312	321.5603637695312	873.2346801757812	972.7083129882812	320.527099609375	885.179931640625	751.6066284179688	296.7392578125	462.8157958984375	1387.895141601562	231.2554779052734	404.8364562988281	1326.12744140625	203.1096649169922	345.0013122558594	1060.879150390625	202.9986267089844	438.4015197753906	1045.806884765625	194.4573364257812	379.3009338378906	925.3594970703125	408.2584838867188	311.9985656738281	892.6094970703125	364.626220703125	326.2046203613281	1009.895812988281	250.5249176025391	375.4311218261719	771.03125	515.3798828125	357.1434326171875	841.79833984375	493.1690673828125	314.2317504882812	810.2616577148438	445.5446166992188	563.5194091796875	1579.610961914062	240.8140869140625	573.6343994140625	1597.6962890625	453.8054504394531	493.9052429199219	1594.933349609375	402.0579833984375	686.6698608398438	1573.556640625	320.6407165527344	783.3721923828125	937.9916381835938	359.2957763671875	434.7962951660156	933.362060546875	214.1257476806641	444.7181701660156	942.0739135742188	352.4058532714844	675.6121215820312	952.1190795898438	455.8966064453125	695.6666870117188	510.9637756347656	562.238037109375	732.2471313476562	640.6068725585938	511.4912109375	810.83251953125	77.08309936523438	478.8394165039062	761.8287963867188	292.0616760253906	529.3566284179688	663.8863525390625	51.70285797119141	627.4711303710938	662.4191284179688	36.4892463684082	547.5364990234375	763.4920654296875	60.4615364074707	589.8399047851562	782.71337890625	71.37146759033203	410.2580261230469	511.3166809082031	463.1003723144531	303.0016174316406	435.894287109375	718.8554077148438	289.7023620605469	610.9937744140625	40.68209838867188	209.7597503662109	545.4771118164062	339.1964416503906	314.1494750976562	659.80322265625	36.36896896362305	406.9071655273438	700.2460327148438	32.44902801513672	348.0956420898438	587.3854370117188	31.9759349822998	314.1282348632812	660.1564331054688	35.75946426391602	159.6998596191406	829.6346435546875	662.8448486328125	282.6768493652344	832.0478515625	737.7344970703125	331.7048034667969	
